<svg xmlns="http://www.w3.org/2000/svg" xmlns:xlink="http://www.w3.org/1999/xlink" width="500" zoomAndPan="magnify" viewBox="0 0 375 225" height="300" preserveAspectRatio="xMidYMid meet" version="1.2"><defs/><g id="29e47ee64c"><g style="fill:#ffffff;fill-opacity:1;"><g transform="translate(58.404218, 108.089126)"><path style="stroke:none" d="M 3.40625 0 L 3.40625 -0.875 C 4.4375 -1.1875 5.140625 -1.851562 5.515625 -2.875 C 5.898438 -3.90625 6.09375 -5.78125 6.09375 -8.5 L 6.09375 -38.34375 C 6.09375 -41.113281 5.898438 -43 5.515625 -44 C 5.140625 -45 4.4375 -45.65625 3.40625 -45.96875 L 3.40625 -46.84375 L 14.25 -46.84375 L 14.25 -45.96875 C 13.226562 -45.65625 12.523438 -45 12.140625 -44 C 11.765625 -43 11.578125 -41.113281 11.578125 -38.34375 L 11.578125 -25.359375 L 37.078125 -25.359375 L 37.078125 -38.34375 C 37.078125 -41.113281 36.882812 -43 36.5 -44 C 36.125 -45 35.421875 -45.65625 34.390625 -45.96875 L 34.390625 -46.84375 L 45.234375 -46.84375 L 45.234375 -45.96875 C 44.210938 -45.65625 43.507812 -45 43.125 -44 C 42.75 -43 42.5625 -41.113281 42.5625 -38.34375 L 42.5625 -8.5 C 42.5625 -5.78125 42.75 -3.90625 43.125 -2.875 C 43.507812 -1.851562 44.210938 -1.1875 45.234375 -0.875 L 45.234375 0 L 34.390625 0 L 34.390625 -0.875 C 35.421875 -1.1875 36.125 -1.851562 36.5 -2.875 C 36.882812 -3.90625 37.078125 -5.78125 37.078125 -8.5 L 37.078125 -24.296875 L 11.578125 -24.296875 L 11.578125 -8.5 C 11.578125 -5.78125 11.765625 -3.90625 12.140625 -2.875 C 12.523438 -1.851562 13.226562 -1.1875 14.25 -0.875 L 14.25 0 Z M 3.40625 0 "/></g></g><g style="fill:#ffffff;fill-opacity:1;"><g transform="translate(117.472725, 108.089126)"><path style="stroke:none" d="M 27.296875 0.671875 C 24.441406 0.671875 21.609375 0.191406 18.796875 -0.765625 C 15.992188 -1.722656 13.429688 -3.195312 11.109375 -5.1875 C 8.785156 -7.175781 6.929688 -9.6875 5.546875 -12.71875 C 4.171875 -15.75 3.484375 -19.335938 3.484375 -23.484375 C 3.484375 -28.078125 4.484375 -32.171875 6.484375 -35.765625 C 8.492188 -39.359375 11.28125 -42.191406 14.84375 -44.265625 C 18.414062 -46.335938 22.566406 -47.375 27.296875 -47.375 C 30.109375 -47.375 32.921875 -46.882812 35.734375 -45.90625 C 38.546875 -44.925781 41.097656 -43.441406 43.390625 -41.453125 C 45.691406 -39.472656 47.535156 -36.960938 48.921875 -33.921875 C 50.304688 -30.890625 51 -27.320312 51 -23.21875 C 51 -19.070312 50.304688 -15.503906 48.921875 -12.515625 C 47.535156 -9.523438 45.679688 -7.046875 43.359375 -5.078125 C 41.046875 -3.117188 38.492188 -1.671875 35.703125 -0.734375 C 32.910156 0.203125 30.109375 0.671875 27.296875 0.671875 Z M 8.828125 -27.375 C 8.960938 -24.03125 9.578125 -20.785156 10.671875 -17.640625 C 11.765625 -14.492188 13.257812 -11.671875 15.15625 -9.171875 C 17.050781 -6.671875 19.269531 -4.679688 21.8125 -3.203125 C 24.351562 -1.734375 27.117188 -1 30.109375 -1 C 33.679688 -1 36.648438 -1.78125 39.015625 -3.34375 C 41.378906 -4.90625 43.128906 -7.035156 44.265625 -9.734375 C 45.398438 -12.429688 45.90625 -15.457031 45.78125 -18.8125 C 45.644531 -22.289062 45.03125 -25.644531 43.9375 -28.875 C 42.84375 -32.113281 41.359375 -35.003906 39.484375 -37.546875 C 37.609375 -40.085938 35.398438 -42.101562 32.859375 -43.59375 C 30.316406 -45.09375 27.550781 -45.84375 24.5625 -45.84375 C 21.164062 -45.84375 18.273438 -45.0625 15.890625 -43.5 C 13.503906 -41.9375 11.695312 -39.769531 10.46875 -37 C 9.25 -34.238281 8.703125 -31.03125 8.828125 -27.375 Z M 8.828125 -27.375 "/></g></g><g style="fill:#ffffff;fill-opacity:1;"><g transform="translate(182.360598, 108.089126)"><path style="stroke:none" d="M 13.3125 0 L 13.3125 -0.875 C 14.34375 -1.1875 15.046875 -1.851562 15.421875 -2.875 C 15.804688 -3.90625 16 -5.78125 16 -8.5 L 16 -45.78125 L 12.71875 -45.78125 C 9.726562 -45.78125 7.453125 -45.3125 5.890625 -44.375 C 4.328125 -43.4375 2.96875 -41.757812 1.8125 -39.34375 L 1.078125 -39.484375 L 1.46875 -46.84375 L 35.9375 -46.84375 L 36.34375 -39.484375 L 35.609375 -39.34375 C 34.484375 -41.757812 33.140625 -43.4375 31.578125 -44.375 C 30.023438 -45.3125 27.726562 -45.78125 24.6875 -45.78125 L 21.546875 -45.78125 L 21.546875 -8.5 C 21.546875 -5.78125 21.734375 -3.90625 22.109375 -2.875 C 22.492188 -1.851562 23.195312 -1.1875 24.21875 -0.875 L 24.21875 0 Z M 13.3125 0 "/></g></g><g style="fill:#ffffff;fill-opacity:1;"><g transform="translate(230.325474, 108.089126)"><path style="stroke:none" d="M 3.40625 0 L 3.40625 -0.875 C 4.4375 -1.1875 5.140625 -1.851562 5.515625 -2.875 C 5.898438 -3.90625 6.09375 -5.78125 6.09375 -8.5 L 6.09375 -38.34375 C 6.09375 -41.113281 5.898438 -43 5.515625 -44 C 5.140625 -45 4.4375 -45.65625 3.40625 -45.96875 L 3.40625 -46.84375 L 34.53125 -46.84375 L 35.265625 -38.140625 L 34.53125 -37.9375 C 33.375 -40.882812 31.753906 -42.9375 29.671875 -44.09375 C 27.597656 -45.257812 24.847656 -45.84375 21.421875 -45.84375 L 11.578125 -45.84375 L 11.578125 -25.5625 L 20.140625 -25.5625 C 22.679688 -25.5625 24.65625 -25.726562 26.0625 -26.0625 C 27.46875 -26.394531 28.492188 -26.90625 29.140625 -27.59375 C 29.785156 -28.289062 30.242188 -29.128906 30.515625 -30.109375 L 31.3125 -30.109375 L 31.3125 -20.015625 L 30.515625 -20.015625 C 30.242188 -21.035156 29.785156 -21.878906 29.140625 -22.546875 C 28.492188 -23.222656 27.46875 -23.726562 26.0625 -24.0625 C 24.65625 -24.394531 22.679688 -24.5625 20.140625 -24.5625 L 11.578125 -24.5625 L 11.578125 -4.015625 C 11.578125 -2.003906 12.582031 -1 14.59375 -1 L 23.28125 -1 C 26.5 -1 29.15625 -1.554688 31.25 -2.671875 C 33.34375 -3.785156 34.992188 -5.90625 36.203125 -9.03125 L 36.9375 -8.90625 L 36.40625 0 Z M 3.40625 0 "/></g></g><g style="fill:#ffffff;fill-opacity:1;"><g transform="translate(280.230139, 108.089126)"><path style="stroke:none" d="M 3.40625 0 L 3.40625 -0.875 C 4.4375 -1.1875 5.140625 -1.851562 5.515625 -2.875 C 5.898438 -3.90625 6.09375 -5.78125 6.09375 -8.5 L 6.09375 -38.34375 C 6.09375 -41.113281 5.898438 -43 5.515625 -44 C 5.140625 -45 4.4375 -45.65625 3.40625 -45.96875 L 3.40625 -46.84375 L 14.25 -46.84375 L 14.25 -45.96875 C 13.226562 -45.65625 12.523438 -45 12.140625 -44 C 11.765625 -43 11.578125 -41.113281 11.578125 -38.34375 L 11.578125 -4.078125 C 11.578125 -2.078125 12.582031 -1.078125 14.59375 -1.078125 L 22.546875 -1.078125 C 25.765625 -1.078125 28.234375 -1.554688 29.953125 -2.515625 C 31.671875 -3.472656 33.109375 -5.203125 34.265625 -7.703125 L 35 -7.5625 L 34.53125 0 Z M 3.40625 0 "/></g></g><path style="fill:none;stroke-width:1;stroke-linecap:butt;stroke-linejoin:miter;stroke:#ffffff;stroke-opacity:1;stroke-miterlimit:4;" d="M 0.000442269 0.50045 L 120.298816 0.50045 " transform="matrix(1.273494,0,0,1.273494,40.015062,140.315805)"/><g style="fill:#ffffff;fill-opacity:1;"><g transform="translate(193.594314, 148.563318)"><path style="stroke:none" d="M 25.515625 -13.78125 C 25.515625 -12.65625 25.046875 -11.644531 24.109375 -10.75 C 23.171875 -9.851562 22.019531 -9.070312 20.65625 -8.40625 C 19.300781 -7.75 17.9375 -7.210938 16.5625 -6.796875 C 15.1875 -6.378906 14.054688 -6.070312 13.171875 -5.875 C 13.128906 -5.550781 13.078125 -5.21875 13.015625 -4.875 C 12.960938 -4.539062 12.9375 -4.210938 12.9375 -3.890625 C 12.9375 -2.734375 13.125 -1.925781 13.5 -1.46875 C 13.882812 -1.007812 14.535156 -0.757812 15.453125 -0.71875 C 16.253906 -0.675781 17.390625 -1.003906 18.859375 -1.703125 C 20.335938 -2.398438 22 -3.648438 23.84375 -5.453125 C 25 -6.648438 25.785156 -7.523438 26.203125 -8.078125 C 26.617188 -8.640625 26.890625 -8.921875 27.015625 -8.921875 C 27.210938 -8.921875 27.3125 -8.800781 27.3125 -8.5625 C 27.3125 -8.476562 27.09375 -8.164062 26.65625 -7.625 C 26.21875 -7.09375 25.675781 -6.488281 25.03125 -5.8125 C 24.394531 -5.132812 23.773438 -4.515625 23.171875 -3.953125 C 21.703125 -2.597656 20.328125 -1.609375 19.046875 -0.984375 C 17.765625 -0.367188 16.425781 -0.0390625 15.03125 0 C 13.957031 0 13.066406 -0.304688 12.359375 -0.921875 C 11.660156 -1.546875 11.140625 -2.347656 10.796875 -3.328125 C 10.460938 -4.304688 10.296875 -5.3125 10.296875 -6.34375 C 10.296875 -6.78125 10.328125 -7.160156 10.390625 -7.484375 C 10.453125 -7.804688 10.484375 -8.003906 10.484375 -8.078125 C 10.484375 -8.160156 10.472656 -8.203125 10.453125 -8.203125 C 10.429688 -8.203125 10.421875 -8.203125 10.421875 -8.203125 C 10.296875 -8.085938 10.234375 -8.03125 10.234375 -8.03125 C 10.203125 -8.03125 10.144531 -8.078125 10.0625 -8.171875 C 9.976562 -8.273438 9.9375 -8.347656 9.9375 -8.390625 C 9.9375 -8.460938 10.085938 -8.675781 10.390625 -9.03125 C 10.691406 -9.394531 11.019531 -9.765625 11.375 -10.140625 C 11.738281 -10.523438 12 -10.796875 12.15625 -10.953125 C 13.789062 -12.628906 15.523438 -14 17.359375 -15.0625 C 19.203125 -16.125 20.921875 -16.65625 22.515625 -16.65625 C 23.429688 -16.65625 24.160156 -16.382812 24.703125 -15.84375 C 25.242188 -15.300781 25.515625 -14.613281 25.515625 -13.78125 Z M 22.515625 -15.9375 C 21.722656 -15.9375 20.847656 -15.613281 19.890625 -14.96875 C 18.929688 -14.332031 18 -13.515625 17.09375 -12.515625 C 16.195312 -11.515625 15.410156 -10.484375 14.734375 -9.421875 C 14.054688 -8.367188 13.617188 -7.425781 13.421875 -6.59375 C 14.410156 -6.707031 15.492188 -6.992188 16.671875 -7.453125 C 17.859375 -7.910156 18.988281 -8.507812 20.0625 -9.25 C 21.144531 -9.988281 22.023438 -10.828125 22.703125 -11.765625 C 23.378906 -12.703125 23.71875 -13.710938 23.71875 -14.796875 C 23.71875 -15.554688 23.316406 -15.9375 22.515625 -15.9375 Z M 22.515625 -15.9375 "/></g></g><g style="fill:#ffffff;fill-opacity:1;"><g transform="translate(210.243979, 148.563318)"><path style="stroke:none" d="M 29.046875 -35.640625 L 33 -36.046875 C 29.125 -29.898438 25.859375 -24.757812 23.203125 -20.625 C 20.546875 -16.5 18.429688 -13.144531 16.859375 -10.5625 C 15.285156 -7.988281 14.144531 -6.003906 13.4375 -4.609375 C 12.738281 -3.210938 12.390625 -2.175781 12.390625 -1.5 C 12.390625 -1.332031 12.476562 -1.160156 12.65625 -0.984375 C 12.84375 -0.804688 13.078125 -0.71875 13.359375 -0.71875 C 14.273438 -0.71875 15.289062 -1.101562 16.40625 -1.875 C 17.53125 -2.65625 18.828125 -3.785156 20.296875 -5.265625 C 21.660156 -6.660156 22.53125 -7.617188 22.90625 -8.140625 C 23.289062 -8.660156 23.5625 -8.921875 23.71875 -8.921875 C 23.914062 -8.921875 24.015625 -8.820312 24.015625 -8.625 C 24.015625 -8.539062 23.742188 -8.179688 23.203125 -7.546875 C 22.671875 -6.910156 22.179688 -6.367188 21.734375 -5.921875 C 20.023438 -4.085938 18.457031 -2.640625 17.03125 -1.578125 C 15.613281 -0.523438 14.328125 0 13.171875 0 C 12.171875 0 11.488281 -0.304688 11.125 -0.921875 C 10.769531 -1.546875 10.59375 -2.238281 10.59375 -3 C 10.59375 -4.195312 10.8125 -5.28125 11.25 -6.25 C 11.695312 -7.226562 12.378906 -8.375 13.296875 -9.6875 C 14.210938 -11.007812 15.347656 -12.8125 16.703125 -15.09375 L 16.59375 -15.21875 C 16.070312 -14.613281 15.53125 -13.972656 14.96875 -13.296875 C 14.414062 -12.617188 13.640625 -11.738281 12.640625 -10.65625 C 11.515625 -9.414062 10.800781 -8.613281 10.5 -8.25 C 10.207031 -7.894531 9.984375 -7.71875 9.828125 -7.71875 C 9.660156 -7.71875 9.578125 -7.820312 9.578125 -8.03125 C 9.578125 -8.144531 9.945312 -8.597656 10.6875 -9.390625 C 11.425781 -10.191406 12.394531 -11.28125 13.59375 -12.65625 C 14.789062 -14.039062 16.109375 -15.679688 17.546875 -17.578125 C 18.984375 -19.472656 20.421875 -21.578125 21.859375 -23.890625 Z M 29.046875 -35.640625 "/></g></g><g style="fill:#ffffff;fill-opacity:1;"><g transform="translate(223.539755, 148.563318)"><path style="stroke:none" d="M 25.515625 -13.78125 C 25.515625 -12.65625 25.046875 -11.644531 24.109375 -10.75 C 23.171875 -9.851562 22.019531 -9.070312 20.65625 -8.40625 C 19.300781 -7.75 17.9375 -7.210938 16.5625 -6.796875 C 15.1875 -6.378906 14.054688 -6.070312 13.171875 -5.875 C 13.128906 -5.550781 13.078125 -5.21875 13.015625 -4.875 C 12.960938 -4.539062 12.9375 -4.210938 12.9375 -3.890625 C 12.9375 -2.734375 13.125 -1.925781 13.5 -1.46875 C 13.882812 -1.007812 14.535156 -0.757812 15.453125 -0.71875 C 16.253906 -0.675781 17.390625 -1.003906 18.859375 -1.703125 C 20.335938 -2.398438 22 -3.648438 23.84375 -5.453125 C 25 -6.648438 25.785156 -7.523438 26.203125 -8.078125 C 26.617188 -8.640625 26.890625 -8.921875 27.015625 -8.921875 C 27.210938 -8.921875 27.3125 -8.800781 27.3125 -8.5625 C 27.3125 -8.476562 27.09375 -8.164062 26.65625 -7.625 C 26.21875 -7.09375 25.675781 -6.488281 25.03125 -5.8125 C 24.394531 -5.132812 23.773438 -4.515625 23.171875 -3.953125 C 21.703125 -2.597656 20.328125 -1.609375 19.046875 -0.984375 C 17.765625 -0.367188 16.425781 -0.0390625 15.03125 0 C 13.957031 0 13.066406 -0.304688 12.359375 -0.921875 C 11.660156 -1.546875 11.140625 -2.347656 10.796875 -3.328125 C 10.460938 -4.304688 10.296875 -5.3125 10.296875 -6.34375 C 10.296875 -6.78125 10.328125 -7.160156 10.390625 -7.484375 C 10.453125 -7.804688 10.484375 -8.003906 10.484375 -8.078125 C 10.484375 -8.160156 10.472656 -8.203125 10.453125 -8.203125 C 10.429688 -8.203125 10.421875 -8.203125 10.421875 -8.203125 C 10.296875 -8.085938 10.234375 -8.03125 10.234375 -8.03125 C 10.203125 -8.03125 10.144531 -8.078125 10.0625 -8.171875 C 9.976562 -8.273438 9.9375 -8.347656 9.9375 -8.390625 C 9.9375 -8.460938 10.085938 -8.675781 10.390625 -9.03125 C 10.691406 -9.394531 11.019531 -9.765625 11.375 -10.140625 C 11.738281 -10.523438 12 -10.796875 12.15625 -10.953125 C 13.789062 -12.628906 15.523438 -14 17.359375 -15.0625 C 19.203125 -16.125 20.921875 -16.65625 22.515625 -16.65625 C 23.429688 -16.65625 24.160156 -16.382812 24.703125 -15.84375 C 25.242188 -15.300781 25.515625 -14.613281 25.515625 -13.78125 Z M 22.515625 -15.9375 C 21.722656 -15.9375 20.847656 -15.613281 19.890625 -14.96875 C 18.929688 -14.332031 18 -13.515625 17.09375 -12.515625 C 16.195312 -11.515625 15.410156 -10.484375 14.734375 -9.421875 C 14.054688 -8.367188 13.617188 -7.425781 13.421875 -6.59375 C 14.410156 -6.707031 15.492188 -6.992188 16.671875 -7.453125 C 17.859375 -7.910156 18.988281 -8.507812 20.0625 -9.25 C 21.144531 -9.988281 22.023438 -10.828125 22.703125 -11.765625 C 23.378906 -12.703125 23.71875 -13.710938 23.71875 -14.796875 C 23.71875 -15.554688 23.316406 -15.9375 22.515625 -15.9375 Z M 22.515625 -15.9375 "/></g></g><g style="fill:#ffffff;fill-opacity:1;"><g transform="translate(240.189419, 148.563318)"><path style="stroke:none" d="M 23.890625 -15.9375 C 22.691406 -15.9375 21.453125 -15.460938 20.171875 -14.515625 C 18.898438 -13.578125 17.703125 -12.390625 16.578125 -10.953125 C 15.460938 -9.515625 14.566406 -8.046875 13.890625 -6.546875 C 13.210938 -5.054688 12.875 -3.734375 12.875 -2.578125 C 12.875 -2.054688 13.003906 -1.613281 13.265625 -1.25 C 13.523438 -0.894531 13.914062 -0.71875 14.4375 -0.71875 C 15.3125 -0.71875 16.257812 -1.054688 17.28125 -1.734375 C 18.300781 -2.410156 19.304688 -3.273438 20.296875 -4.328125 C 21.296875 -5.390625 22.203125 -6.519531 23.015625 -7.71875 C 23.835938 -8.914062 24.488281 -10.050781 24.96875 -11.125 C 25.445312 -12.207031 25.6875 -13.070312 25.6875 -13.71875 C 25.6875 -14.394531 25.566406 -14.929688 25.328125 -15.328125 C 25.085938 -15.734375 24.609375 -15.9375 23.890625 -15.9375 Z M 28.8125 -16.109375 L 32.703125 -16.40625 L 22.640625 0.234375 L 22.765625 0.359375 C 24.441406 -0.316406 26.15625 -1.429688 27.90625 -2.984375 C 29.664062 -4.546875 31.179688 -6.085938 32.453125 -7.609375 C 32.929688 -8.160156 33.226562 -8.515625 33.34375 -8.671875 C 33.46875 -8.835938 33.59375 -8.921875 33.71875 -8.921875 C 33.875 -8.921875 33.953125 -8.820312 33.953125 -8.625 C 33.953125 -8.46875 33.8125 -8.226562 33.53125 -7.90625 C 33.257812 -7.582031 32.679688 -6.941406 31.796875 -5.984375 C 30.203125 -4.234375 28.523438 -2.695312 26.765625 -1.375 C 25.015625 -0.0625 23.519531 0.8125 22.28125 1.25 C 21.84375 2.175781 21.191406 3.359375 20.328125 4.796875 C 19.472656 6.234375 18.484375 7.75 17.359375 9.34375 C 16.242188 10.9375 15.066406 12.441406 13.828125 13.859375 C 12.597656 15.273438 11.351562 16.429688 10.09375 17.328125 C 8.832031 18.234375 7.644531 18.6875 6.53125 18.6875 C 5.644531 18.6875 4.921875 18.425781 4.359375 17.90625 C 3.804688 17.382812 3.53125 16.625 3.53125 15.625 C 3.53125 14.03125 4.160156 12.523438 5.421875 11.109375 C 6.679688 9.691406 8.488281 8.210938 10.84375 6.671875 C 13.195312 5.140625 16.050781 3.4375 19.40625 1.5625 C 19.84375 0.5625 20.367188 -0.570312 20.984375 -1.84375 C 21.609375 -3.125 22.476562 -4.84375 23.59375 -7 L 23.484375 -7.125 C 23.078125 -6.53125 22.523438 -5.832031 21.828125 -5.03125 C 21.128906 -4.226562 20.367188 -3.4375 19.546875 -2.65625 C 18.734375 -1.882812 17.882812 -1.25 17 -0.75 C 16.125 -0.25 15.269531 0 14.4375 0 C 13.039062 0 12.070312 -0.476562 11.53125 -1.4375 C 10.988281 -2.394531 10.71875 -3.648438 10.71875 -5.203125 C 10.71875 -5.960938 10.785156 -6.5625 10.921875 -7 C 11.066406 -7.445312 11.140625 -7.890625 11.140625 -8.328125 C 11.140625 -8.441406 11.0625 -8.5 10.90625 -8.5 C 10.738281 -8.5 10.601562 -8.425781 10.5 -8.28125 C 10.40625 -8.144531 10.316406 -8.078125 10.234375 -8.078125 C 10.078125 -8.078125 10 -8.195312 10 -8.4375 C 10 -8.519531 10.109375 -8.703125 10.328125 -8.984375 C 10.546875 -9.265625 11.078125 -9.84375 11.921875 -10.71875 C 12.835938 -11.675781 13.953125 -12.601562 15.265625 -13.5 C 16.585938 -14.40625 17.96875 -15.15625 19.40625 -15.75 C 20.84375 -16.351562 22.140625 -16.65625 23.296875 -16.65625 C 24.253906 -16.65625 25.007812 -16.429688 25.5625 -15.984375 C 26.125 -15.546875 26.40625 -14.8125 26.40625 -13.78125 C 26.40625 -12.894531 26.328125 -12.191406 26.171875 -11.671875 L 26.296875 -11.5625 C 26.691406 -12.195312 27.109375 -12.90625 27.546875 -13.6875 C 27.984375 -14.46875 28.40625 -15.273438 28.8125 -16.109375 Z M 5.09375 15.6875 C 5.09375 16.363281 5.191406 16.910156 5.390625 17.328125 C 5.585938 17.753906 6.066406 17.96875 6.828125 17.96875 C 7.703125 17.96875 8.648438 17.554688 9.671875 16.734375 C 10.691406 15.921875 11.691406 14.863281 12.671875 13.5625 C 13.648438 12.269531 14.566406 10.910156 15.421875 9.484375 C 16.273438 8.066406 17.007812 6.726562 17.625 5.46875 C 18.25 4.21875 18.679688 3.234375 18.921875 2.515625 C 17.921875 3.109375 16.648438 3.863281 15.109375 4.78125 C 13.578125 5.707031 12.039062 6.75 10.5 7.90625 C 8.96875 9.0625 7.679688 10.296875 6.640625 11.609375 C 5.609375 12.929688 5.09375 14.289062 5.09375 15.6875 Z M 5.09375 15.6875 "/></g></g><g style="fill:#ffffff;fill-opacity:1;"><g transform="translate(263.486988, 148.563318)"><path style="stroke:none" d="M 14.015625 0 C 13.015625 0 12.234375 -0.265625 11.671875 -0.796875 C 11.117188 -1.335938 10.738281 -2.023438 10.53125 -2.859375 C 10.332031 -3.703125 10.234375 -4.566406 10.234375 -5.453125 C 10.234375 -5.929688 10.265625 -6.398438 10.328125 -6.859375 C 10.390625 -7.316406 10.460938 -7.785156 10.546875 -8.265625 C 10.503906 -8.265625 10.453125 -8.234375 10.390625 -8.171875 C 10.328125 -8.109375 10.257812 -8.078125 10.1875 -8.078125 C 10.019531 -8.078125 9.9375 -8.179688 9.9375 -8.390625 C 9.9375 -8.503906 9.992188 -8.617188 10.109375 -8.734375 C 10.234375 -8.859375 10.5 -9.160156 10.90625 -9.640625 C 12.539062 -11.640625 14.460938 -13.304688 16.671875 -14.640625 C 18.890625 -15.984375 21.039062 -16.65625 23.125 -16.65625 C 24.039062 -16.65625 24.695312 -16.363281 25.09375 -15.78125 C 25.488281 -15.195312 25.6875 -14.507812 25.6875 -13.71875 C 25.6875 -13 25.628906 -12.457031 25.515625 -12.09375 L 25.640625 -11.984375 C 26.359375 -13.140625 26.875 -14.015625 27.1875 -14.609375 C 27.507812 -15.210938 27.78125 -15.632812 28 -15.875 C 28.21875 -16.113281 28.523438 -16.234375 28.921875 -16.234375 L 31.796875 -16.34375 C 31.484375 -15.945312 30.984375 -15.25 30.296875 -14.25 C 29.617188 -13.25 28.867188 -12.117188 28.046875 -10.859375 C 27.234375 -9.609375 26.457031 -8.34375 25.71875 -7.0625 C 24.976562 -5.789062 24.367188 -4.664062 23.890625 -3.6875 C 23.410156 -2.707031 23.171875 -2 23.171875 -1.5625 C 23.171875 -1 23.515625 -0.71875 24.203125 -0.71875 C 25.117188 -0.71875 26.332031 -1.40625 27.84375 -2.78125 C 29.363281 -4.15625 30.984375 -5.863281 32.703125 -7.90625 C 33.054688 -8.34375 33.28125 -8.609375 33.375 -8.703125 C 33.476562 -8.804688 33.550781 -8.859375 33.59375 -8.859375 C 33.832031 -8.859375 33.953125 -8.738281 33.953125 -8.5 C 33.953125 -8.457031 33.769531 -8.226562 33.40625 -7.8125 C 33.050781 -7.394531 32.625 -6.90625 32.125 -6.34375 C 31.625 -5.789062 31.132812 -5.253906 30.65625 -4.734375 C 29.300781 -3.296875 28.054688 -2.144531 26.921875 -1.28125 C 25.785156 -0.425781 24.816406 0 24.015625 0 C 23.210938 0 22.570312 -0.273438 22.09375 -0.828125 C 21.613281 -1.390625 21.375 -2.488281 21.375 -4.125 C 21.375 -4.332031 21.382812 -4.523438 21.40625 -4.703125 C 21.425781 -4.878906 21.4375 -5.046875 21.4375 -5.203125 C 20.84375 -4.609375 20.101562 -3.898438 19.21875 -3.078125 C 18.34375 -2.265625 17.445312 -1.546875 16.53125 -0.921875 C 15.613281 -0.304688 14.773438 0 14.015625 0 Z M 12.640625 -2.640625 C 12.640625 -2.078125 12.75 -1.613281 12.96875 -1.25 C 13.1875 -0.894531 13.535156 -0.71875 14.015625 -0.71875 C 14.691406 -0.71875 15.507812 -1.015625 16.46875 -1.609375 C 17.425781 -2.210938 18.394531 -3.015625 19.375 -4.015625 C 20.351562 -5.015625 21.269531 -6.101562 22.125 -7.28125 C 22.988281 -8.457031 23.675781 -9.613281 24.1875 -10.75 C 24.707031 -11.882812 24.96875 -12.894531 24.96875 -13.78125 C 24.96875 -14.375 24.816406 -14.878906 24.515625 -15.296875 C 24.222656 -15.722656 23.757812 -15.9375 23.125 -15.9375 C 21.925781 -15.9375 20.707031 -15.457031 19.46875 -14.5 C 18.226562 -13.539062 17.085938 -12.34375 16.046875 -10.90625 C 15.015625 -9.46875 14.1875 -8 13.5625 -6.5 C 12.945312 -5 12.640625 -3.710938 12.640625 -2.640625 Z M 12.640625 -2.640625 "/></g></g><g style="fill:#ffffff;fill-opacity:1;"><g transform="translate(286.784556, 148.563318)"><path style="stroke:none" d="M 14.859375 -0.359375 L 10.84375 0 C 11.082031 -0.4375 11.550781 -1.171875 12.25 -2.203125 C 12.945312 -3.242188 13.753906 -4.414062 14.671875 -5.71875 C 15.585938 -7.019531 16.484375 -8.304688 17.359375 -9.578125 C 18.242188 -10.859375 18.972656 -12 19.546875 -13 C 20.128906 -14 20.421875 -14.675781 20.421875 -15.03125 C 20.421875 -15.632812 20.125 -15.9375 19.53125 -15.9375 C 18.6875 -15.9375 17.796875 -15.582031 16.859375 -14.875 C 15.921875 -14.175781 14.691406 -12.988281 13.171875 -11.3125 C 12.253906 -10.320312 11.59375 -9.585938 11.1875 -9.109375 C 10.789062 -8.628906 10.539062 -8.328125 10.4375 -8.203125 C 10.34375 -8.085938 10.257812 -8.03125 10.1875 -8.03125 C 9.976562 -8.03125 9.875 -8.148438 9.875 -8.390625 C 9.875 -8.460938 10.15625 -8.828125 10.71875 -9.484375 C 11.28125 -10.148438 11.757812 -10.703125 12.15625 -11.140625 C 13.59375 -12.816406 14.929688 -14.15625 16.171875 -15.15625 C 17.410156 -16.15625 18.609375 -16.65625 19.765625 -16.65625 C 20.566406 -16.65625 21.132812 -16.394531 21.46875 -15.875 C 21.8125 -15.351562 21.984375 -14.632812 21.984375 -13.71875 C 21.984375 -12.914062 21.757812 -12.035156 21.3125 -11.078125 C 20.875 -10.117188 20.351562 -9.207031 19.75 -8.34375 C 19.15625 -7.488281 18.640625 -6.765625 18.203125 -6.171875 L 18.328125 -6.046875 C 18.804688 -6.484375 19.429688 -7.117188 20.203125 -7.953125 C 20.984375 -8.796875 21.84375 -9.71875 22.78125 -10.71875 C 23.726562 -11.71875 24.679688 -12.664062 25.640625 -13.5625 C 26.597656 -14.457031 27.515625 -15.195312 28.390625 -15.78125 C 29.265625 -16.363281 30.003906 -16.65625 30.609375 -16.65625 C 31.359375 -16.65625 31.90625 -16.34375 32.25 -15.71875 C 32.59375 -15.101562 32.765625 -14.472656 32.765625 -13.828125 C 32.765625 -12.835938 32.523438 -11.898438 32.046875 -11.015625 C 31.566406 -10.140625 31.066406 -9.363281 30.546875 -8.6875 C 27.867188 -5.050781 26.53125 -2.796875 26.53125 -1.921875 C 26.53125 -1.640625 26.617188 -1.367188 26.796875 -1.109375 C 26.984375 -0.847656 27.210938 -0.71875 27.484375 -0.71875 C 28.171875 -0.71875 29.09375 -1.1875 30.25 -2.125 C 31.40625 -3.0625 32.601562 -4.191406 33.84375 -5.515625 C 34.875 -6.585938 35.578125 -7.363281 35.953125 -7.84375 C 36.335938 -8.320312 36.578125 -8.617188 36.671875 -8.734375 C 36.773438 -8.859375 36.890625 -8.921875 37.015625 -8.921875 C 37.171875 -8.921875 37.25 -8.820312 37.25 -8.625 C 37.25 -8.539062 36.988281 -8.1875 36.46875 -7.5625 C 35.945312 -6.945312 35.382812 -6.3125 34.78125 -5.65625 C 34.1875 -5 33.753906 -4.53125 33.484375 -4.25 C 32.160156 -2.9375 30.976562 -1.898438 29.9375 -1.140625 C 28.90625 -0.378906 28.050781 0 27.375 0 C 26.488281 0 25.828125 -0.367188 25.390625 -1.109375 C 24.953125 -1.847656 24.734375 -2.753906 24.734375 -3.828125 C 24.734375 -5.023438 25.0625 -6.210938 25.71875 -7.390625 C 26.382812 -8.566406 27.132812 -9.675781 27.96875 -10.71875 C 28.8125 -11.757812 29.5625 -12.664062 30.21875 -13.4375 C 30.875 -14.21875 31.203125 -14.8125 31.203125 -15.21875 C 31.203125 -15.695312 30.921875 -15.9375 30.359375 -15.9375 C 29.804688 -15.9375 28.96875 -15.492188 27.84375 -14.609375 C 26.726562 -13.734375 25.5 -12.613281 24.15625 -11.25 C 22.820312 -9.894531 21.515625 -8.488281 20.234375 -7.03125 C 18.960938 -5.570312 17.835938 -4.234375 16.859375 -3.015625 C 15.878906 -1.804688 15.210938 -0.921875 14.859375 -0.359375 Z M 14.859375 -0.359375 "/></g></g><g style="fill:#ffffff;fill-opacity:1;"><g transform="translate(313.376141, 148.563318)"><path style="stroke:none" d="M 26.046875 -13.71875 C 26.046875 -13.15625 25.847656 -12.582031 25.453125 -12 C 25.054688 -11.425781 24.519531 -11.140625 23.84375 -11.140625 C 23.320312 -11.140625 22.941406 -11.285156 22.703125 -11.578125 C 22.460938 -11.878906 22.34375 -12.234375 22.34375 -12.640625 C 22.34375 -13.160156 22.488281 -13.5 22.78125 -13.65625 C 23.082031 -13.8125 23.382812 -13.945312 23.6875 -14.0625 C 23.988281 -14.1875 24.140625 -14.46875 24.140625 -14.90625 C 24.140625 -15.144531 24.03125 -15.375 23.8125 -15.59375 C 23.59375 -15.820312 23.242188 -15.9375 22.765625 -15.9375 C 21.878906 -15.9375 20.882812 -15.582031 19.78125 -14.875 C 18.6875 -14.175781 17.640625 -13.226562 16.640625 -12.03125 C 15.648438 -10.832031 14.832031 -9.460938 14.1875 -7.921875 C 13.550781 -6.390625 13.234375 -4.765625 13.234375 -3.046875 C 13.234375 -1.492188 14.070312 -0.71875 15.75 -0.71875 C 16.789062 -0.71875 18 -1.097656 19.375 -1.859375 C 20.75 -2.617188 22.097656 -3.675781 23.421875 -5.03125 C 24.492188 -6.144531 25.269531 -6.984375 25.75 -7.546875 C 26.226562 -8.109375 26.535156 -8.476562 26.671875 -8.65625 C 26.816406 -8.832031 26.910156 -8.921875 26.953125 -8.921875 C 27.191406 -8.921875 27.3125 -8.800781 27.3125 -8.5625 C 27.3125 -8.476562 27.082031 -8.164062 26.625 -7.625 C 26.164062 -7.09375 25.613281 -6.488281 24.96875 -5.8125 C 23.09375 -3.726562 21.394531 -2.238281 19.875 -1.34375 C 18.363281 -0.445312 16.847656 0 15.328125 0 C 14.085938 0 13.128906 -0.347656 12.453125 -1.046875 C 11.773438 -1.742188 11.296875 -2.601562 11.015625 -3.625 C 10.734375 -4.644531 10.59375 -5.632812 10.59375 -6.59375 C 10.59375 -7.070312 10.625 -7.4375 10.6875 -7.6875 C 10.75 -7.945312 10.78125 -8.117188 10.78125 -8.203125 C 10.78125 -8.285156 10.738281 -8.328125 10.65625 -8.328125 C 10.582031 -8.328125 10.515625 -8.285156 10.453125 -8.203125 C 10.390625 -8.117188 10.316406 -8.078125 10.234375 -8.078125 C 10.035156 -8.078125 9.9375 -8.179688 9.9375 -8.390625 C 9.9375 -8.460938 10.035156 -8.628906 10.234375 -8.890625 C 10.441406 -9.148438 11.023438 -9.835938 11.984375 -10.953125 C 13.691406 -12.953125 15.394531 -14.398438 17.09375 -15.296875 C 18.789062 -16.203125 20.476562 -16.65625 22.15625 -16.65625 C 23.3125 -16.65625 24.25 -16.40625 24.96875 -15.90625 C 25.6875 -15.40625 26.046875 -14.675781 26.046875 -13.71875 Z M 26.046875 -13.71875 "/></g></g><g style="fill:#ffffff;fill-opacity:1;"><g transform="translate(330.025805, 148.563318)"><path style="stroke:none" d="M 25.515625 -13.78125 C 25.515625 -12.65625 25.046875 -11.644531 24.109375 -10.75 C 23.171875 -9.851562 22.019531 -9.070312 20.65625 -8.40625 C 19.300781 -7.75 17.9375 -7.210938 16.5625 -6.796875 C 15.1875 -6.378906 14.054688 -6.070312 13.171875 -5.875 C 13.128906 -5.550781 13.078125 -5.21875 13.015625 -4.875 C 12.960938 -4.539062 12.9375 -4.210938 12.9375 -3.890625 C 12.9375 -2.734375 13.125 -1.925781 13.5 -1.46875 C 13.882812 -1.007812 14.535156 -0.757812 15.453125 -0.71875 C 16.253906 -0.675781 17.390625 -1.003906 18.859375 -1.703125 C 20.335938 -2.398438 22 -3.648438 23.84375 -5.453125 C 25 -6.648438 25.785156 -7.523438 26.203125 -8.078125 C 26.617188 -8.640625 26.890625 -8.921875 27.015625 -8.921875 C 27.210938 -8.921875 27.3125 -8.800781 27.3125 -8.5625 C 27.3125 -8.476562 27.09375 -8.164062 26.65625 -7.625 C 26.21875 -7.09375 25.675781 -6.488281 25.03125 -5.8125 C 24.394531 -5.132812 23.773438 -4.515625 23.171875 -3.953125 C 21.703125 -2.597656 20.328125 -1.609375 19.046875 -0.984375 C 17.765625 -0.367188 16.425781 -0.0390625 15.03125 0 C 13.957031 0 13.066406 -0.304688 12.359375 -0.921875 C 11.660156 -1.546875 11.140625 -2.347656 10.796875 -3.328125 C 10.460938 -4.304688 10.296875 -5.3125 10.296875 -6.34375 C 10.296875 -6.78125 10.328125 -7.160156 10.390625 -7.484375 C 10.453125 -7.804688 10.484375 -8.003906 10.484375 -8.078125 C 10.484375 -8.160156 10.472656 -8.203125 10.453125 -8.203125 C 10.429688 -8.203125 10.421875 -8.203125 10.421875 -8.203125 C 10.296875 -8.085938 10.234375 -8.03125 10.234375 -8.03125 C 10.203125 -8.03125 10.144531 -8.078125 10.0625 -8.171875 C 9.976562 -8.273438 9.9375 -8.347656 9.9375 -8.390625 C 9.9375 -8.460938 10.085938 -8.675781 10.390625 -9.03125 C 10.691406 -9.394531 11.019531 -9.765625 11.375 -10.140625 C 11.738281 -10.523438 12 -10.796875 12.15625 -10.953125 C 13.789062 -12.628906 15.523438 -14 17.359375 -15.0625 C 19.203125 -16.125 20.921875 -16.65625 22.515625 -16.65625 C 23.429688 -16.65625 24.160156 -16.382812 24.703125 -15.84375 C 25.242188 -15.300781 25.515625 -14.613281 25.515625 -13.78125 Z M 22.515625 -15.9375 C 21.722656 -15.9375 20.847656 -15.613281 19.890625 -14.96875 C 18.929688 -14.332031 18 -13.515625 17.09375 -12.515625 C 16.195312 -11.515625 15.410156 -10.484375 14.734375 -9.421875 C 14.054688 -8.367188 13.617188 -7.425781 13.421875 -6.59375 C 14.410156 -6.707031 15.492188 -6.992188 16.671875 -7.453125 C 17.859375 -7.910156 18.988281 -8.507812 20.0625 -9.25 C 21.144531 -9.988281 22.023438 -10.828125 22.703125 -11.765625 C 23.378906 -12.703125 23.71875 -13.710938 23.71875 -14.796875 C 23.71875 -15.554688 23.316406 -15.9375 22.515625 -15.9375 Z M 22.515625 -15.9375 "/></g></g></g></svg>